{"title":"Gallipoli S01E02 My Friend, the Enemy 1080P WEB-DL","uid":11706943,"size":1904981028,"categoryP":"video","categoryS":"hd___tv_shows","magnet":"?xt=urn:btih:f0f5b457347b5f49fe31e9b991635abc80c70d5f&amp;dn=Gallipoli+S01E02+My+Friend%2C+the+Enemy+1080P+WEB-DL&amp;tr=udp%3A%2F%2Ftracker.openbittorrent.com%3A80&amp;tr=udp%3A%2F%2Fopen.demonii.com%3A1337&amp;tr=udp%3A%2F%2Ftracker.coppersurfer.tk%3A6969&amp;tr=udp%3A%2F%2Fexodus.desync.com%3A6969","seeders":6,"leechers":1,"uploader":"jmanwf","files":2,"time":1424167663,"description":"One month after the botched dawn landing, the Australians and New Zealanders are digging in, struggling to hold their position in the hills above Anzac Cove. Despite his growing fear that he will be killed at Gallipoli, when the Turks mount a massive counter-attack Tolly risks his life by charging a machine gun to protect his brother Bevan.\n\n\n\nVideo\nID : 2\nFormat : AVC\nFormat/Info : Advanced Video Codec\nFormat profile : &lt;a class=&quot;__cf_email__&quot; href=&quot;/cdn-cgi/l/email-protection&quot; data-cfemail=&quot;cd85a4aaa58d81f9e3fd&quot;&gt;[email&amp;#160;protected]&lt;/a&gt;&lt;script cf-hash='f9e31' type=&quot;text/javascript&quot;&gt;\n/* &lt;![CDATA[ */!function(){try{var t=&quot;currentScript&quot;in document?document.currentScript:function(){for(var t=document.getElementsByTagName(&quot;script&quot;),e=t.length;e--;)if(t[e].getAttribute(&quot;cf-hash&quot;))return t[e]}();if(t&amp;&amp;t.previousSibling){var e,r,n,i,c=t.previousSibling,a=c.getAttribute(&quot;data-cfemail&quot;);if(a){for(e=&quot;&quot;,r=parseInt(a.substr(0,2),16),n=2;a.length-n;n+=2)i=parseInt(a.substr(n,2),16)^r,e+=String.fromCharCode(i);e=document.createTextNode(e),c.parentNode.replaceChild(e,c)}}}catch(u){}}();/* ]]&gt; */&lt;/script&gt;\nFormat settings, CABAC : Yes\nFormat settings, ReFrames : 4 frames\nCodec ID : avc1\nCodec ID/Info : Advanced Video Coding\nDuration : 44mn 42s\nBit rate : 5 168 Kbps\nWidth : 1 912 pixels\nHeight : 1 072 pixels\nDisplay aspect ratio : 16:9\nFrame rate mode : Constant\nFrame rate : 25.000 fps\nColor space : YUV\nChroma subsampling : 4:2:0\nBit depth : 8 bits\nScan type : Progressive\nBits/(Pixel*Frame) : 0.101\nStream size : 1.61 GiB (91%)\nLanguage : English\nEncoded date : UTC 2015-02-17 03:23:27\nTagged date : UTC 2015-02-17 03:27:39\nColor primaries : BT.709\nTransfer characteristics : BT.709\nMatrix coefficients : BT.709\nColor range : Limited\n\nAudio #1\nID : 1\nFormat : AAC\nFormat/Info : Advanced Audio Codec\nFormat profile : LC\nCodec ID : 40\nDuration : 44mn 42s\nDuration_LastFrame : -7ms\nBit rate mode : Variable\nBit rate : 125 Kbps\nMaximum bit rate : 182 Kbps\nChannel(s) : 2 channels\nChannel positions : Front: L R\nSampling rate : 48.0 KHz\nCompression mode : Lossy\nStream size : 40.1 MiB (2%)\nLanguage : English\nEncoded date : UTC 2015-02-17 03:23:27\nTagged date : UTC 2015-02-17 03:27:39\n\nAudio #2\nID : 3\nFormat : AC-3\nFormat/Info : Audio Coding 3\nMode extension : CM (complete main)\nFormat settings, Endianness : Big\nCodec ID : ac-3\nDuration : 44mn 42s\nDuration_LastFrame : -1ms\nBit rate mode : Constant\nBit rate : 384 Kbps\nChannel(s) : 6 channels\nChannel positions : Front: L C R, Side: L R, LFE\nSampling rate : 48.0 KHz\nBit depth : 16 bits\nCompression mode : Lossy\nStream size : 123 MiB (7%)\nLanguage : English\nEncoded date : UTC 2015-02-17 03:23:27\nTagged date : UTC 2015-02-17 03:27:39\n\nText\nID : 4-CC1\nFormat : EIA-608\nMuxing mode : Final Cut\nCodec ID : c608\nDuration : 43mn 5s\nBit rate mode : Constant\nStream size : 0.00 Byte (0%)\nLanguage : English\nEncoded date : UTC 2015-02-17 03:23:27\nTagged date : UTC 2015-02-17 03:26:35","torrent":{"xt":"urn:btih:f0f5b457347b5f49fe31e9b991635abc80c70d5f","amp;dn":"Gallipoli+S01E02+My+Friend%2C+the+Enemy+1080P+WEB-DL","amp;tr":["udp%3A%2F%2Ftracker.openbittorrent.com%3A80","udp%3A%2F%2Fopen.demonii.com%3A1337","udp%3A%2F%2Ftracker.coppersurfer.tk%3A6969","udp%3A%2F%2Fexodus.desync.com%3A6969"],"infoHash":"f0f5b457347b5f49fe31e9b991635abc80c70d5f","infoHashBuffer":{"type":"Buffer","data":[240,245,180,87,52,123,95,73,254,49,233,185,145,99,90,188,128,199,13,95]},"announce":[],"urlList":[]}}